<?xml version="1.0" encoding="UTF-8"?>
<svg xmlns="http://www.w3.org/2000/svg" xmlns:xlink="http://www.w3.org/1999/xlink" width="25px" height="25px" viewBox="0 0 25 25" version="1.1">
<g id="surface1">
<path style=" stroke:none;fill-rule:nonzero;fill:rgb(25.882354%,50.196081%,93.725491%);fill-opacity:1;" d="M 19.996094 12.683594 C 19.996094 12.167969 19.949219 11.632812 19.867188 11.132812 L 12.652344 11.132812 L 12.652344 14.085938 L 16.785156 14.085938 C 16.617188 15.035156 16.0625 15.867188 15.25 16.402344 L 17.71875 18.316406 C 19.167969 16.964844 19.996094 15 19.996094 12.683594 Z M 19.996094 12.683594 "/>
<path style=" stroke:none;fill-rule:nonzero;fill:rgb(20.392157%,63.921571%,32.549021%);fill-opacity:1;" d="M 12.652344 20.148438 C 14.71875 20.148438 16.449219 19.464844 17.71875 18.300781 L 15.25 16.402344 C 14.566406 16.867188 13.683594 17.132812 12.652344 17.132812 C 10.648438 17.132812 8.96875 15.78125 8.351562 13.980469 L 5.816406 15.933594 C 7.117188 18.515625 9.75 20.148438 12.652344 20.148438 Z M 12.652344 20.148438 "/>
<path style=" stroke:none;fill-rule:nonzero;fill:rgb(96.470588%,71.764708%,1.568628%);fill-opacity:1;" d="M 8.351562 13.964844 C 8.035156 13.015625 8.035156 11.984375 8.351562 11.035156 L 5.816406 9.066406 C 4.730469 11.234375 4.730469 13.785156 5.816406 15.933594 Z M 8.351562 13.964844 "/>
<path style=" stroke:none;fill-rule:nonzero;fill:rgb(89.803922%,26.274511%,20.784314%);fill-opacity:1;" d="M 12.652344 7.882812 C 13.730469 7.867188 14.800781 8.285156 15.582031 9.03125 L 17.769531 6.835938 C 16.382812 5.535156 14.550781 4.835938 12.652344 4.851562 C 9.75 4.851562 7.117188 6.484375 5.816406 9.066406 L 8.351562 11.035156 C 8.96875 9.21875 10.648438 7.882812 12.652344 7.882812 Z M 12.652344 7.882812 "/>
</g>
</svg>
